<svg version="1.0" xmlns="http://www.w3.org/2000/svg"
  width="100.000000pt" height="80.000000pt" viewBox="0 0 100.000000 80.000000"
  preserveAspectRatio="xMidYMid meet">

  <g transform="translate(0.000000,80.000000) scale(0.100000,-0.100000)"
    fill="#fff" stroke="none">
    <path
      d="M420 790 c-114 -24 -230 -114 -276 -214 -54 -119 -52 -241 6 -355 32
-64 95 -130 109 -115 6 5 26 103 46 219 20 115 39 213 41 217 7 11 122 10 129
-2 3 -5 -1 -39 -10 -75 -19 -83 -19 -91 2 -99 21 -9 163 4 163 15 0 4 -17 9
-37 11 l-38 3 4 55 c3 30 5 69 5 85 l1 30 -125 3 c-69 1 -135 0 -147 -3 -27
-6 -36 -34 -64 -197 -12 -71 -26 -128 -31 -128 -21 0 -42 77 -42 160 -1 72 3
94 25 141 37 79 90 133 167 171 60 30 75 33 157 33 79 0 96 -3 145 -29 30 -15
58 -31 63 -35 11 -11 -54 -391 -71 -407 -10 -10 -43 -14 -123 -14 -106 0 -142
-11 -78 -24 40 -8 237 -8 267 0 26 7 26 6 67 234 l32 175 -26 28 c-36 40 -103
85 -152 102 -54 19 -153 26 -209 15z" />
    <path
      d="M837 551 c-3 -16 -1 -46 5 -67 15 -58 5 -171 -21 -226 -67 -141 -221
-223 -372 -199 -31 5 -71 17 -88 25 -41 22 -51 20 -51 -8 0 -28 43 -49 142
-67 59 -11 70 -10 148 14 152 47 252 153 285 301 17 77 16 94 -12 199 -17 63
-28 71 -36 28z" />
  </g>
</svg>