<svg viewBox="0 0 400 300" fill="none" xmlns="http://www.w3.org/2000/svg"><g clip-path="url(#a)"><mask id="b" style="mask-type:alpha" maskUnits="userSpaceOnUse" x="43" y="72" width="316" height="197"><path d="M220.409 80.234c76.232-16.886 119.68 15.506 133.415 59.942 13.736 44.435-3.382 111.801-64.219 125.278-60.837 13.476-71.744-19.706-154.307-5.311-82.564 14.394-124.444-111.2-62.707-163.57 61.736-52.37 71.586.548 147.818-16.338Z" fill="#fff"/></mask><g mask="url(#b)"><path d="M220.409 80.234c76.232-16.886 119.68 15.506 133.415 59.942 13.736 44.435-3.382 111.801-64.219 125.278-60.837 13.476-71.744-19.706-154.307-5.311-82.564 14.394-124.444-111.2-62.707-163.57 61.736-52.37 71.586.548 147.818-16.338Z" fill="#F2F5FF"/></g><mask id="c" style="mask-type:alpha" maskUnits="userSpaceOnUse" x="32" y="-6" width="354" height="273"><path d="M207.359-2.858c78.908-22.2 178.033 92.188 178.033 144.084s-15.92 88.907-76.485 114.3c-60.564 25.394-71.401-2.541-170.349 6.957-98.949 9.497-144.59-151.89-66.511-196.661 78.078-44.771 56.404-46.48 135.312-68.68Z" fill="#fff"/></mask><g mask="url(#c)"><path d="m149.997 152.293-6.328-51.533c-3.613-29.426 17.313-56.209 46.738-59.822 29.426-3.613 56.209 17.312 59.822 46.738l6.328 51.533" stroke="#DBE3FF" stroke-width="33.44"/><mask id="d" style="mask-type:alpha" maskUnits="userSpaceOnUse" x="103" y="103" width="209" height="159"><path d="m279.225 104.026-159.822 19.602c-9.646 1.183-16.505 9.965-15.319 19.615l12.618 102.651c1.186 9.649 9.968 16.513 19.614 15.33l159.822-19.602c9.647-1.184 16.505-9.965 15.319-19.615L298.84 119.356c-1.187-9.65-9.968-16.513-19.615-15.33Z" fill="#fff"/></mask><g mask="url(#d)"><path d="m279.234 104.027-159.83 19.612c-9.647 1.184-16.506 9.966-15.321 19.615l12.611 102.641c1.185 9.649 9.967 16.511 19.614 15.328l159.829-19.613c9.647-1.183 16.507-9.965 15.321-19.614l-12.61-102.642c-1.186-9.648-9.967-16.511-19.614-15.327Z" fill="#5578EC"/><mask id="e" style="mask-type:alpha" maskUnits="userSpaceOnUse" x="17" y="-19" width="475" height="475"><path d="M491.615 132.557 168.631-18.038 17.986 304.996 340.97 455.591l150.645-323.034Z" fill="#fff"/></mask><g mask="url(#e)"><path d="M491.615 132.571 168.618-18.039 17.986 304.983l322.997 150.609 150.632-323.02Z" fill="#436FFF"/><path d="M297.562 42.092c-23.092 61.44-18.585 107.252 13.518 137.437 32.104 30.185 92.015 36.265 179.735 18.242" stroke="#fff" stroke-width="1.32"/><path d="M320.004 52.552c-22.406 74.44-61.91 99.877-118.511 76.313-84.901-35.348 4.757-70.54 21.411-32.081 16.653 38.459-11.118 91.973-72.895 108.721-41.184 11.164-80.671 7.937-118.46-9.684M402.302 324.107c-119.363-65.34-237.423-67.032-354.18-5.077" stroke="#fff" stroke-width="1.32"/><path d="M79.726 172.578c70.636 59.283 102.101 127.683 94.393 205.2" stroke="#fff" stroke-width="1.32"/><path d="M438.421 246.65c-79.828 28.978-125.224 27.059-136.188-5.76-16.445-49.227 57.909-47.282 52.8-12.522-5.108 34.76-65.148 36.242-135.073 16.747-46.617-12.997-112.463-5.464-197.538 22.597M225.398 8.443C265.32 57.581 326.651 99.97 409.39 135.61c82.739 35.641 145.017 52.748 186.833 51.32M421.946 281.987c-75.003 26.229-125.549 76.859-151.638 151.89" stroke="#fff" stroke-width="1.32"/><path d="M111.173 105.145c115.351 85.114 182.786 201.402 202.305 348.863" stroke="#fff" stroke-width="1.32"/><path d="M215.389 3.774c-42.637-10.185-64.774-.285-66.41 29.7-2.454 44.976 20.197 142.752-60.471 120.264M48.857 238.774c9.24 59.318 36.092 85.59 80.553 78.818 66.692-10.159 87.227-9.148 105.156 7.777 11.954 11.283 14.521 39.345 7.704 84.187" stroke="#fff" stroke-width="1.32"/></g></g><mask id="f" style="mask-type:alpha" maskUnits="userSpaceOnUse" x="174" y="136" width="72" height="102"><path d="M210.107 136.161c19.561 0 35.42 15.798 35.42 35.286 0 13.6-7.724 25.404-19.041 31.294l4.401 31.771a2.279 2.279 0 0 1-2.24 2.591l-36.51.279a2.28 2.28 0 0 1-2.279-2.557l3.936-32.049c-11.353-5.879-19.107-17.702-19.107-31.329 0-19.488 15.858-35.286 35.42-35.286Z" fill="#fff"/></mask><g mask="url(#f)"><path d="M203.939 136.538c19.416-2.384 37.081 11.364 39.456 30.706 1.657 13.5-4.57 26.156-15.084 33.382l8.24 30.998a2.279 2.279 0 0 1-1.908 2.845l-36.204 4.726a2.28 2.28 0 0 1-2.574-2.26l.001-32.29c-11.985-4.451-21.122-15.242-22.783-28.767-2.375-19.343 11.44-36.956 30.856-39.34Z" fill="#01133B"/><path d="M215.245 222.26a1.1 1.1 0 1 0 0-2.2 1.1 1.1 0 0 0 0 2.2ZM228.225 226.34a1 1 0 1 0 0-2 1 1 0 0 0 0 2ZM239.665 162.1a1 1 0 1 0 0-2 1 1 0 0 0 0 2ZM206.005 229.2a1 1 0 1 0 0-2 1 1 0 0 0 0 2ZM202.705 226.78a1 1 0 1 0 0-2 1 1 0 0 0 0 2ZM206.225 155.06a1 1 0 1 0 0-2 1 1 0 0 0 0 2ZM195.225 151.1a1 1 0 1 0 0-2 1 1 0 0 0 0 2ZM200.725 144.28a1 1 0 1 0 0-2 1 1 0 0 0 0 2ZM228.445 158.8a1 1 0 1 0 0-2 1 1 0 0 0 0 2ZM219.425 147.14a1 1 0 1 0 0-2 1 1 0 0 0 0 2Z" fill="#fff"/></g><mask id="g" style="mask-type:alpha" maskUnits="userSpaceOnUse" x="172" y="104" width="196" height="181"><path d="M211.634 120.113c2.531-8.341 4.961-16.502 7.627-15.473 11.772 4.546 130.294 14.808 131.943 28.227 2.128 17.312 32.981 95.122 3.293 105.298-.346.119-1.966-.088-4.61-.559l.947 44.443a2.278 2.278 0 0 1-2.882 2.246l-149.703-41.264a2.279 2.279 0 0 1-1.674-2.167l-.491-35.88c-12.091-4.397-21.343-15.28-23.023-28.943-2.381-19.375 11.365-37.004 30.703-39.376 2.735-.335 5.127-7.566 7.422-15.08l.448-1.472Z" fill="#fff"/></mask><g mask="url(#g)"><path d="M157.591 139.636c-13.386-5.139-28.399 1.539-33.533 14.917-5.134 13.377 1.556 28.389 14.943 33.529l132.281 50.793c13.386 5.14 28.399-1.539 33.533-14.916 5.134-13.378-1.556-28.39-14.942-33.53l-132.282-50.793Z" fill="#fff" stroke="#01133B" stroke-width="1.32" stroke-linecap="round" stroke-linejoin="round"/><path fill-rule="evenodd" clip-rule="evenodd" d="m251.931 212.444-3.03-57.171a7.105 7.105 0 0 1 6.597-7.468 6.987 6.987 0 0 1 7.451 6.484v.006l2.002 28.882" fill="#fff"/><path d="m251.931 212.444-3.03-57.171a7.105 7.105 0 0 1 6.597-7.468 6.987 6.987 0 0 1 7.451 6.484v.006l2.002 28.882" stroke="#01133B" stroke-width="1.32" stroke-linecap="round" stroke-linejoin="round"/><path d="m259.848 214.023 41.248-2.873-2.743-39.077-41.248 2.874 2.743 39.076Z" fill="#fff"/><path fill-rule="evenodd" clip-rule="evenodd" d="m303.331 194.847 7.226-17.077a6.576 6.576 0 0 1 8.955-3.339 7.207 7.207 0 0 1 3.408 9.41l-14.243 31.867" fill="#fff"/><path d="m303.331 194.847 7.226-17.077a6.576 6.576 0 0 1 8.955-3.339 7.207 7.207 0 0 1 3.408 9.41l-14.243 31.867" stroke="#01133B" stroke-width="1.32" stroke-linecap="round" stroke-linejoin="round"/><path fill-rule="evenodd" clip-rule="evenodd" d="m264.961 183.129-2.064-29.059a6.758 6.758 0 0 1 6.262-7.223l.064-.004a6.887 6.887 0 0 1 7.287 6.396l2.04 29.062" fill="#fff"/><path d="m264.961 183.129-2.064-29.059a6.758 6.758 0 0 1 6.262-7.223l.064-.004a6.888 6.888 0 0 1 7.287 6.396l2.04 29.062" stroke="#01133B" stroke-width="1.32" stroke-linecap="round" stroke-linejoin="round"/><path fill-rule="evenodd" clip-rule="evenodd" d="m278.559 182.297-2.032-28.956a6.842 6.842 0 0 1 6.348-7.309l.084-.006a7.022 7.022 0 0 1 7.403 6.521l2.036 29.015" fill="#fff"/><path d="m278.559 182.297-2.032-28.956a6.842 6.842 0 0 1 6.348-7.309l.084-.006a7.022 7.022 0 0 1 7.403 6.521l2.036 29.015" stroke="#01133B" stroke-width="1.32" stroke-linecap="round" stroke-linejoin="round"/><path fill-rule="evenodd" clip-rule="evenodd" d="m292.397 181.556-2.015-28.718a7.2 7.2 0 0 1 6.677-7.689l.026-.001a7.414 7.414 0 0 1 7.868 6.725l5.257 57.414c1.404 15.329-9.608 28.995-24.872 30.866" fill="#fff"/><path d="m292.397 181.556-2.015-28.718a7.2 7.2 0 0 1 6.677-7.689l.026-.001a7.414 7.414 0 0 1 7.868 6.725l5.257 57.414c1.404 15.329-9.608 28.995-24.872 30.866" stroke="#01133B" stroke-width="1.32" stroke-linecap="round" stroke-linejoin="round"/></g></g></g><defs><clipPath id="a"><path fill="#fff" d="M0 0h400v300H0z"/></clipPath></defs></svg>